<?xml version="1.0" encoding="utf-8"?>
<!-- Generator: Adobe Illustrator 22.1.0, SVG Export Plug-In . SVG Version: 6.00 Build 0)  -->
<svg version="1.1" id="Layer_1" xmlns="http://www.w3.org/2000/svg" xmlns:xlink="http://www.w3.org/1999/xlink" x="0px" y="0px"
	 viewBox="0 0 2206 2500" style="enable-background:new 0 0 2206 2500;" xml:space="preserve">
<style type="text/css">
	.st0{fill:#F8B550;}
	.st1{fill:#FFFFFF;}
</style>
<path class="st0" d="M1653.3,217.4h552.5v1231.9c0,471-480.1,425.7-480.1,425.7H1454v507.2c144.9,90.6,72.5,117.8,72.5,117.8H620.7
	c-99.6-22.6,67.9-104.2,67.9-104.2v-516.3H335.3C63.6,1829.7,0.2,1555.7,0.2,1555.7V217.4h231V1558c40.8,131.3,221.9,154,221.9,154
	h996.4c203.8-31.7,203.8-326.1,203.8-326.1V217.4z"/>
<path class="st0" d="M348.9,217.4h412.1v1168.5c9.1,63.4,72.5,77,72.5,77h471c54.3-13.6,77-72.5,77-72.5V221.9H1531v1222.8
	c0,0-24.9-173.5-4.5-22.6c22.6,167.6-203.8,194.7-203.8,194.7H557.3c-181.2,0-212.9-131.3-212.9-131.3L348.9,217.4z"/>
<path class="st1" d="M1137,896.7c398.6-525.4,63.4-724.6,63.4-724.6C1037.3,72.5,1041.9,0,1041.9,0
	c-353.3,462-36.2,606.9-36.2,606.9C1173.2,679.3,1137,896.7,1137,896.7z"/>
</svg>
