<?xml version="1.0" encoding="utf-8"?>
<!-- Generator: Adobe Illustrator 22.1.0, SVG Export Plug-In . SVG Version: 6.00 Build 0)  -->
<svg version="1.1" id="Layer_1" xmlns="http://www.w3.org/2000/svg" xmlns:xlink="http://www.w3.org/1999/xlink" x="0px" y="0px"
	 viewBox="0 0 792 612" style="enable-background:new 0 0 792 612;" xml:space="preserve">
<style type="text/css">
	.st0{clip-path:url(#SVGID_2_);fill:none;stroke:#000000;stroke-width:3;stroke-miterlimit:10;}
	.st1{clip-path:url(#SVGID_2_);fill:#FCB614;}
	.st2{clip-path:url(#SVGID_2_);fill:none;stroke:#000000;stroke-width:2;stroke-miterlimit:10;}
	.st3{clip-path:url(#SVGID_2_);fill:#656565;}
	.st4{clip-path:url(#SVGID_2_);fill:#030202;}
	.st5{clip-path:url(#SVGID_2_);fill:none;stroke:#FBB116;stroke-miterlimit:10;}
	.st6{clip-path:url(#SVGID_2_);fill:#282828;}
	.st7{clip-path:url(#SVGID_2_);fill:#FFFFFF;}
</style>
<g>
	<defs>
		<rect id="SVGID_1_" width="792" height="612"/>
	</defs>
	<clipPath id="SVGID_2_">
		<use xlink:href="#SVGID_1_"  style="overflow:visible;"/>
	</clipPath>
	<path class="st0" d="M511.3,128.2l-43.4,113.1l-1.9,0.2L496.7,128l-53.8-0.9l-94.2-1.5v0l-41.6-0.7c0,0-3.4,8.6-3.7,9.3l0.1-9.4
		l-64.3-1l12,122.5l-13.4,71.9l60.2-7.6l12.8-63.3l20.7-43.6l-6.1,27.8c-3.9,18.1-6.2,29.7-6.8,35.5c-0.8,7.4,0.3,14.3,3.4,20.6
		c3.4,6.9,9.3,12,17.7,15.2c4.9,1.9,10.5,2.8,16.6,2.8c2.8,0,5.8-0.2,8.9-0.6c8.3-1.1,16-3.5,22.8-7.1c4.8-2.6,9.2-5.8,13.2-9.5
		l-2.4,9.4l49.6-6.3l92.4-11.7l29.6-150.6L511.3,128.2z"/>
	<path class="st1" d="M351.4,134.6l-50.9,107.2L289,298.7l-37.5,4.8l10.9-58.6L251.4,133l41,0.7c-0.5,34.8-1.5,57.5-3,69
		c5.9-18.3,14.2-41.1,25.1-68.6L351.4,134.6z"/>
	<path class="st2" d="M351.4,134.6l-50.9,107.2L289,298.7l-37.5,4.8l10.9-58.6L251.4,133l41,0.7c-0.5,34.8-1.5,57.5-3,69
		c5.9-18.3,14.2-41.1,25.1-68.6L351.4,134.6z"/>
	<path class="st1" d="M438.8,136l-25.5,101.3c-2.8,10.9-5,18.6-6.7,23c-1.7,4.4-4.6,9.1-8.8,14c-4.2,4.9-9.1,8.9-14.7,11.9
		c-5.7,3-12,5-19.1,5.9c-7.9,1-14.7,0.5-20.3-1.6c-5.6-2.1-9.6-5.4-11.7-9.7c-2.2-4.4-3-9.3-2.4-14.6c0.6-5.3,2.8-16.7,6.6-34.4
		l21.1-97.2l37.1,0.6l-27.5,117.8c-1.5,6.5-2.2,10.6-1.9,12.3c0.2,1.7,1.3,2.5,3.2,2.3c2.2-0.2,3.8-1.4,4.9-3.4
		c1.1-2,2.5-6.7,4.3-14.1l27.3-114.8L438.8,136z"/>
	<path class="st2" d="M438.8,136l-25.5,101.3c-2.8,10.9-5,18.6-6.7,23c-1.7,4.4-4.6,9.1-8.8,14c-4.2,4.9-9.1,8.9-14.7,11.9
		c-5.7,3-12,5-19.1,5.9c-7.9,1-14.7,0.5-20.3-1.6c-5.6-2.1-9.6-5.4-11.7-9.7c-2.2-4.4-3-9.3-2.4-14.6c0.6-5.3,2.8-16.7,6.6-34.4
		l21.1-97.2l37.1,0.6l-27.5,117.8c-1.5,6.5-2.2,10.6-1.9,12.3c0.2,1.7,1.3,2.5,3.2,2.3c2.2-0.2,3.8-1.4,4.9-3.4
		c1.1-2,2.5-6.7,4.3-14.1l27.3-114.8L438.8,136z"/>
	<polygon class="st1" points="482.5,136.7 451.3,251.9 469,250.1 461.6,276.8 413.7,282.8 451.4,136.2 	"/>
	<polygon class="st2" points="482.5,136.7 451.3,251.9 469,250.1 461.6,276.8 413.7,282.8 451.4,136.2 	"/>
	<path class="st1" d="M557.4,137.8l-25.5,130l-25.7,3.3l5.4-22.7l-9.4,1l-8.4,23.3l-28.3,3.6l53.4-139L557.4,137.8z M517.7,225.4
		c3.1-14.9,7.3-33.7,12.7-56.5c-10.4,26.4-17.7,45.4-21.8,57.2L517.7,225.4z"/>
	<path class="st2" d="M557.4,137.8l-25.5,130l-25.7,3.3l5.4-22.7l-9.4,1l-8.4,23.3l-28.3,3.6l53.4-139L557.4,137.8z M517.7,225.4
		c3.1-14.9,7.3-33.7,12.7-56.5c-10.4,26.4-17.7,45.4-21.8,57.2L517.7,225.4z"/>
	<polyline class="st3" points="587.2,401.8 587.3,401.7 587.2,401.8 	"/>
	<path class="st3" d="M586.8,400.3c0.1,0.5,0.3,0.9,0.4,1.4c0,0,0.1-0.1,0.1-0.1c-0.3-0.3-0.7-0.6-1-0.9
		C586.5,400.7,586.7,400.5,586.8,400.3"/>
	<path class="st3" d="M586.3,400.8c-0.4-0.2-0.7-0.5-1.1-0.7c0.3-0.3,0.6-0.5,0.9-0.8c0.3,0.3,0.5,0.7,0.8,1
		C586.7,400.5,586.5,400.7,586.3,400.8"/>
	<path class="st4" d="M564.2,337.1c-7.8-12.3-15.9-23.9-28.7-31.9c0-3.6-2.2-6.4-3-7.5c-1.3-1.7-2.5-3.5-3.8-5.5
		c-1.2-1.9-2.5-3.8-4-5.7c-7-9.4-16-16.1-26.6-19.9c-9.6-3.4-19.7-5.1-30.9-5.1c-4,0-8.2,0.2-12.5,0.7c-1.4,0.1-2.7,0.2-4,0.2
		c-1.4,0-2.8-0.1-4.2-0.3c-6-0.8-12-1.2-17.9-1.2c-9.7,0-19.4,1.1-28.9,3.2c-0.7,0.2-1.4,0.2-2,0.2c-0.4,0-0.8,0-1.3-0.1
		c-7.5-1.3-14.5-1.9-21.3-1.9c-8.5,0-16.7,1-24.5,2.9c-11.7,2.9-22.1,7.8-31.6,14.9l-8.4,6.2l5.6,3.6l-60.7,20.8l11,8.2
		c0.5,0.4,1,0.8,1.5,1.1c1,0.7,1.8,1.3,2.6,1.9c26.9,18.9,45.2,41.9,55.7,70.1c5.1,13.6,11,27.2,18.3,41.8
		c9.6,19.4,20.5,32.8,34.2,42.3c0.1,0.1,0.2,0.1,0.2,0.2c1,0.8,3.4,2.8,7.1,2.8c0.7,0,1.5-0.1,2.2-0.2l7.7-1.7l-2.4-7.6
		c-0.8-2.5-0.5-4.6,0.9-6.9c2.6-4.3,5.9-7.8,10-10.5c2.1-1.4,4-2,6-2c1,0,2.1,0.2,3,0.5l-7.5,1.2l3.5,8.4c1.5,3.5,4.4,4.8,5.5,5.3
		l0.1,0c8.8,4.7,18,7.1,27.3,7c5.5,0,11.2-0.8,16.8-2.5c19.5-5.7,34-17.9,45.6-29c1-0.9,3-3.5,1.9-7.5l-1.4-6.4l-3.6,0.5
		c2.3-5,4.2-10.2,5.6-15.8l-6.9-4.5c10-3.2,18.3-8.2,25.5-15.3c2.9-2.9,5.5-6,8-9c3.2-3.9,6.2-7.5,9.7-10.4c2.2-1.8,4-4.3,5.1-7.2
		c1.4-3.6,4.4-6.5,7.9-9.8l0.2-0.2c0.7-0.7,1.4-1.4,2.1-2.1c1.2-1.1,2.3-2.2,3.4-3.2C566.5,346.9,567.2,341.8,564.2,337.1
		 M334.6,346.9c-8.4-11.3-18.5-21.2-30.1-29.5c11.3-4.2,22.4-7.5,33.9-7.5c1,0,2.1,0,3.1,0.1c3.4,0.2,6.7,0.9,9.9,2
		c-2.7,1.5-5.1,3.5-6.9,6c-4.1,5.3-5.6,12.3-4.4,20.2c1.2,7.7,4.2,15.4,9.4,23.3c1,1.5,2,3.1,3.1,4.6
		C346,360.7,340.1,354.3,334.6,346.9 M402.5,293.7c-1.2,0-2.5-0.2-4-0.5c-5.1-1.1-9.8-3.7-13.7-6c-3.7-2.2-7.6-4-11.6-5.4
		c1.3,0,2.5-0.1,3.7-0.1c9.1,0,16.2,1.3,22.5,4.2c4.3,1.9,6.8,3.9,8.2,6.4C406.1,293.3,404.5,293.7,402.5,293.7 M423.1,324.1
		c-3.2-0.2-5.9-0.7-8.4-1.5c3.1-1.6,6.6-2.6,10.4-3.1C424.2,320.7,423.5,322.2,423.1,324.1 M492.2,391.7c-0.8,1.3-1.6,2.5-2.6,4
		c-0.5,0.8-1,1.5-1.6,2.4l-10.4,15.6l9.5-2.4c-8.8,6-16.8,10.2-25,12.9c-1.7-2.2-2.9-4.9-3.9-8.9c-0.7-2.5-0.8-5.3-1-8.3
		c-0.2-2.5-0.3-5.1-0.8-7.7c-0.5-3.2-1.8-10.7-7.7-16c5.5-6.9,15.1-13.1,25.3-13.1c3.3,0,6.4,0.7,9.4,1.9c3.4,1.5,6.6,3.2,10.1,5
		c1.2,0.7,2.5,1.3,3.8,2C496.6,383.3,494.9,387.4,492.2,391.7 M500.1,322.8c4.4-1.7,8.4-2.6,12.3-2.9c1.2-0.1,2.2-0.2,3-0.2
		c1.1,0,2,0.1,2.7,0.3l-3,8.4l-8.9-0.5C504.2,325.9,502.2,324.2,500.1,322.8 M533.5,355.3c-3.2,5-8.3,7.7-14.5,7.7
		c-2.6,0-5.3-0.5-8.1-1.4c-1.4-0.5-2.8-1.1-4.3-1.9l1,0.4l3.4-3.5l4.8-5l-3.8-4.9c-1.2-1.6-2.6-3.1-4-4.6l9.8,0.2l-4.8-6.1l6.2-4.5
		c0.4,0.2,0.8,0.5,1.1,0.7c2.4,1.5,4.5,3,6.4,4.4l2.4,6.2c0.5,1.2,0.9,2.4,1.4,3.6c1.1,2.8,2.1,5.4,3.2,8.2
		C533.7,355.1,533.6,355.2,533.5,355.3"/>
	<path class="st4" d="M500.3,411c-2.5,9.6-6.4,18.4-12.4,26.7c4.3-0.6,8-1.1,11.7-1.6c0.1,0.3,0.2,0.6,0.1,0.7
		c-12.4,11.9-25.7,22.4-42.6,27.3c-13.5,3.9-26.5,2.6-38.8-4.1c-0.8-0.4-1.8-0.6-2.2-1.7c2.9-0.5,5.7-0.5,8.4-1.5
		c3-1.1,3.5-2.8,1.4-5.2c-7-7.7-16.1-10.8-25.4-4.7c-5,3.3-9.1,7.6-12.2,12.8c-2.4,4-3,8.3-1.6,12.8c-1.9,0.4-2.8-0.9-3.8-1.6
		c-14.6-10-24.2-24-31.9-39.6c-6.6-13.4-12.7-27.1-18-41.1c-11.5-30.8-31.7-54.8-58.4-73.5c-1.2-0.8-2.3-1.7-3.9-2.9
		c20.7-7.1,41-14.1,61.9-21.2c-3.3-2.1-6.2-3.9-9.4-6c9-6.6,18.6-11,29.1-13.7c14.2-3.6,28.5-3.4,42.9-1c2.1,0.3,4,0.3,6-0.2
		c14.6-3.3,29.4-3.8,44.3-1.9c3.3,0.4,6.5,0.4,9.9,0.1c13.7-1.4,27.1-0.6,40.2,4c9.6,3.4,17.2,9.3,23.3,17.4
		c2.7,3.7,5.1,7.6,7.8,11.3c2,2.6,2.5,4.5-1.6,5.8c15.4,6.9,24.4,19.8,32.8,33.1c1.2,1.9,0.9,3-0.6,4.3c-2,1.7-3.8,3.7-5.7,5.5
		c-3.9,3.7-7.8,7.4-9.8,12.6c-0.6,1.6-1.7,3.1-2.9,4.2c-7.1,5.7-11.8,13.6-18.2,19.9c-7.4,7.3-16.2,12.1-26.9,14.8
		c1.7-2.5,3.1-4.5,4.4-6.6c3.4-5.5,5.8-11.4,6.5-17.9c0.2-1.9-0.3-3-2-3.8c-5.5-2.8-10.9-5.9-16.5-8.3c-18.7-8.1-39.3,4.7-46.7,18.6
		c-0.5,1-0.7,1.6,0.6,2.1c6.3,2.7,8.2,8.2,9.2,14.3c0.9,5.5,0.5,11.2,1.9,16.7c1.2,4.7,3,9.1,6.3,12.8c1.7,1.9,3.3,2.3,5.7,1.5
		c12.8-4.1,24.1-11,34.7-19.1C498.7,412.2,499.5,411.6,500.3,411"/>
	<path class="st5" d="M500.3,411c-2.5,9.6-6.4,18.4-12.4,26.7c4.3-0.6,8-1.1,11.7-1.6c0.1,0.3,0.2,0.6,0.1,0.7
		c-12.4,11.9-25.7,22.4-42.6,27.3c-13.5,3.9-26.5,2.6-38.8-4.1c-0.8-0.4-1.8-0.6-2.2-1.7c2.9-0.5,5.7-0.5,8.4-1.5
		c3-1.1,3.5-2.8,1.4-5.2c-7-7.7-16.1-10.8-25.4-4.7c-5,3.3-9.1,7.6-12.2,12.8c-2.4,4-3,8.3-1.6,12.8c-1.9,0.4-2.8-0.9-3.8-1.6
		c-14.6-10-24.2-24-31.9-39.6c-6.6-13.4-12.7-27.1-18-41.1c-11.5-30.8-31.7-54.8-58.4-73.5c-1.2-0.8-2.3-1.7-3.9-2.9
		c20.7-7.1,41-14.1,61.9-21.2c-3.3-2.1-6.2-3.9-9.4-6c9-6.6,18.6-11,29.1-13.7c14.2-3.6,28.5-3.4,42.9-1c2.1,0.3,4,0.3,6-0.2
		c14.6-3.3,29.4-3.8,44.3-1.9c3.3,0.4,6.5,0.4,9.9,0.1c13.7-1.4,27.1-0.6,40.2,4c9.6,3.4,17.2,9.3,23.3,17.4
		c2.7,3.7,5.1,7.6,7.8,11.3c2,2.6,2.5,4.5-1.6,5.8c15.4,6.9,24.4,19.8,32.8,33.1c1.2,1.9,0.9,3-0.6,4.3c-2,1.7-3.8,3.7-5.7,5.5
		c-3.9,3.7-7.8,7.4-9.8,12.6c-0.6,1.5-1.7,3.1-2.9,4.2c-7.1,5.7-11.8,13.6-18.2,19.9c-7.4,7.3-16.2,12.1-26.9,14.8
		c1.7-2.5,3.1-4.5,4.4-6.6c3.4-5.5,5.8-11.4,6.5-17.9c0.2-1.9-0.3-3-2-3.8c-5.5-2.8-10.9-5.9-16.5-8.3c-18.7-8.1-39.3,4.7-46.7,18.6
		c-0.5,1-0.7,1.6,0.6,2.1c6.3,2.7,8.2,8.2,9.2,14.3c0.9,5.5,0.5,11.2,1.9,16.7c1.2,4.7,3,9.1,6.3,12.8c1.7,1.9,3.3,2.3,5.7,1.5
		c12.8-4.1,24.1-11,34.7-19.1C498.7,412.2,499.5,411.6,500.3,411z"/>
	<path class="st6" d="M347.2,296.7c-0.2-0.3-0.4-0.5-0.6-0.8c-1.1-1.5-2.1-3-3.3-4.4c-1.7-2-0.9-2.5,1.3-2.9c12.4-1.7,24.2,0,35,6.6
		c5,3,10.2,5.7,16,6.9c5.2,1.1,10.2,0.9,14.8-2.1c3.6-2.4,4.3-5,2.3-8.8c-2.6-4.9-7-7.8-11.8-10c-9.4-4.3-19.4-5.1-29.5-4.8
		c-13,0.5-25.3,3.8-36.7,10.1c-2,1.1-2.3,1.7-0.1,3c3.9,2.2,7.6,4.6,11.4,6.9c0.3,0.2,0.5,0.4,0.8,0.5c0.2,0.2,0.5,0.4,0.7,0.7
		c0,0-0.1,0-0.1,0C347.4,297.4,347.3,297.1,347.2,296.7 M501.4,336.8c-0.5,0-1.2,0.1-1.6-0.1c-13.1-6.8-27.1-7.5-41.3-6.6
		c-0.9,0.1-2.1-0.5-2.5,1.1c5.6,0.6,11.2,1,16.6,2.4c12.8,3.2,24.1,8.9,32.4,19.6c-0.2,0.2-0.3,0.3-0.5,0.5
		c-1.1-0.4-2.1-0.9-3.2-1.3c-11.1-4.3-22.5-6.9-34.5-4.5c-10.7,2.1-19.3,7.8-26,16.7c2.1,0.5,3.5-1.2,5.7-0.6
		c-4.1,3.9-7.7,8.1-9.7,13.3c9.4-8.7,18.1-18.5,32.6-18.2c-3.3-2.3-6.8-1.7-10.2-1.9c2.8-1.4,5.6-1.7,8.6-1.5
		c10.2,0.6,19.2,4.8,28.1,9.3c3.8,1.9,7.4,4.2,11.4,5.5c12.7,4.3,24.6,0.7,30.9-9.3c1.4-2.2,1.9-4.3,0.9-6.8
		c-1.6-3.9-3-7.8-4.6-11.9c0.6,0.2,1,0.2,1.2,0.4c1.3,1.2,2.6,2.5,3.9,3.8c0.3,0.1,0.5,0.2,0.8,0.4c0-0.3-0.1-0.6-0.1-0.9
		c-3.5-8.1-10.2-13.2-17.4-17.8c-1.9-1.2-3.9-2.3-5.8-3.5c9.8,1.4,18.9,4.2,27.1,9.6c0.3,0.2,0.4,0.9,0.9,0.5c0.4-0.3,0-0.7-0.4-0.9
		c-6.6-9-15-15.8-25.9-19c-2.7-0.8-5.6-0.7-8.5-0.4c-6.7,0.6-12.9,2.6-19,5.4c-2.6,1.2-5.5,2.1-7.9,4.3
		C490,327.8,496.7,330.9,501.4,336.8L501.4,336.8z M287.7,317.6c1.2,0.8,1.7,1.3,2.3,1.6c14.6,8.9,27.2,20.2,37.4,33.9
		c13.4,18,30.2,31.3,51.4,39.1c2,0.7,4,1.6,6.1,2.4c0-1.3-0.7-1.5-1.2-1.9c-11.7-9.4-21.4-20.6-29.5-33.2c-4.1-6.3-7.2-13-8.3-20.5
		c-1.8-12,4.3-20.1,16.4-21.5c2.5-0.3,5.1-0.5,8.6-0.9c-9.9-6.2-19.3-11.4-30.3-12C321.9,303.8,305.1,310.6,287.7,317.6
		 M439.8,276.4c-11.3-2.6-22.4-1.6-33.6,0c5.6,3.3,10.1,7.6,14.2,12.4c1.2,1.4,2.5,0.5,3.8,0c15-5.2,30.2-7.5,46.1-6.5
		c13.9,0.9,25.4,6,34.8,16c3,3.2,6.7,5,10.8,6.3c1,0.3,2.2,0.9,2.9,0c0.8-1-0.3-1.9-0.8-2.7c-8.2-13.1-19.9-21.6-35.1-24.8
		c-17-3.6-33.4-0.6-49.6,4.4c-1.3,0.4-2.6,1.3-4.6,0.7C432.6,280.2,436.2,278.3,439.8,276.4 M463,319.7c-0.5-0.2-1-0.5-1.5-0.7
		c-10.2-3.4-20.6-5.3-31.3-5.3c-7.9,0-15.8,1.6-22.7,5.7c-4.6,2.8-4.6,7.1-0.2,10.2c1,0.7,2.2,1.3,3.4,1.6
		c7.6,2.4,15.4,2.3,23.4,1.9c-0.3-0.5-0.4-0.8-0.5-0.8c-2.2-0.8-5.1-1.1-4.9-4.3c0.1-2.9,2.6-4.1,4.9-5.2c4-1.8,8.4-2.2,12.7-2.8
		C451.9,319.4,457.4,320.3,463,319.7 M482.3,445.5c-19.1,2.4-33.8-4.8-45.5-19.4c2.9,8.4,7.7,15.1,15.3,19.6
		c3.3,1.9,6.7,3.6,10.3,4.7c2.5,0.8,2.2,1.7,0.5,3.1c-2.1,1.9-4.5,3.5-6.7,5.3C466.2,457.1,474.8,452.7,482.3,445.5 M499.8,308.3
		c0-0.2,0-0.4,0-0.6c-2,0-4,0-6,0c-1.6,0-2.9-0.3-4.1-1.3c-6.7-5.3-14.4-8.3-22.8-9.6c-6.4-1-12.9-1.5-19.3,0c2.7,0.5,5.5,0.6,8.2,1
		c11.3,1.4,22.2,3.5,30.3,12.5c1.4,1.6,3.3,1.8,5.4,1C494.2,310.2,497,309.2,499.8,308.3 M540.8,348.3l0.1-0.2l-0.2,0L540.8,348.3z"
		/>
	<path class="st7" d="M454,300.9c1,1.1,1.3,1.5,1.6,1.8c3.8,3.1,7.6,6.2,11.5,9.1c4.5,3.5,10.1,3.6,15.4,0.1
		C474.4,305,465.3,301.6,454,300.9"/>
	<path class="st7" d="M490.6,423.5c-7.7,5.7-16.1,9.9-25.8,13.1c5,2,9.3,2.5,13.8,2.7c1.3,0.1,2.1-0.4,2.9-1.4
		C485.4,433.7,488.4,428.9,490.6,423.5"/>
	<path class="st7" d="M503.1,395.2c5.7-1.4,16.4-10.6,19.5-16.6c-4.5,1-8.9,0.9-13.3,0.2c-1.5-0.2-1.8,0.5-1.9,1.7
		C506.8,385.5,505.3,390.3,503.1,395.2"/>
</g>
</svg>
